<svg width="20" height="19" viewBox="0 0 20 19" fill="none" xmlns="http://www.w3.org/2000/svg">
<mask id="mask0_42_2912" style="mask-type:luminance" maskUnits="userSpaceOnUse" x="0" y="0" width="20" height="19">
<path d="M9.99997 17.8334C11.0945 17.8348 12.1786 17.6199 13.1898 17.2011C14.201 16.7822 15.1195 16.1676 15.8925 15.3926C16.6675 14.6196 17.2821 13.7012 17.7009 12.6899C18.1198 11.6787 18.3347 10.5946 18.3333 9.50009C18.3347 8.40554 18.1198 7.3215 17.7009 6.31027C17.282 5.29904 16.6674 4.38055 15.8925 3.60759C15.1195 2.8326 14.201 2.218 13.1898 1.79912C12.1786 1.38024 11.0945 1.16534 9.99997 1.16676C8.90541 1.16536 7.82138 1.38028 6.81014 1.79916C5.79891 2.21804 4.88043 2.83262 4.10747 3.60759C3.3325 4.38055 2.71791 5.29904 2.29903 6.31027C1.88015 7.3215 1.66524 8.40554 1.66663 9.50009C1.66521 10.5946 1.88012 11.6787 2.299 12.6899C2.71788 13.7012 3.33248 14.6196 4.10747 15.3926C4.88043 16.1676 5.79891 16.7821 6.81014 17.201C7.82138 17.6199 8.90541 17.8348 9.99997 17.8334Z" fill="white" stroke="white" stroke-width="2" stroke-linejoin="round"/>
<path d="M6.66663 9.5L9.16663 12L14.1666 7" stroke="black" stroke-width="2" stroke-linecap="round" stroke-linejoin="round"/>
</mask>
<g mask="url(#mask0_42_2912)">
<path d="M0 -0.5H20V19.5H0V-0.5Z" fill="#58BD7D"/>
</g>
</svg>
