<svg width="25" height="25" viewBox="0 0 25 25" fill="none" xmlns="http://www.w3.org/2000/svg">
<path d="M22.213 20.8984C20.5997 18.1094 18.0137 16.2051 15.0176 15.5186C16.4413 14.9353 17.6183 13.8757 18.3475 12.521C19.0767 11.1662 19.3128 9.60025 19.0156 8.0907C18.7183 6.58114 17.9061 5.22164 16.7178 4.24445C15.5294 3.26726 14.0386 2.73303 12.5001 2.73303C10.9615 2.73303 9.47072 3.26726 8.28235 4.24445C7.09398 5.22164 6.2818 6.58114 5.98455 8.0907C5.68731 9.60025 5.92345 11.1662 6.65264 12.521C7.38182 13.8757 8.5588 14.9353 9.98249 15.5186C6.9903 16.2021 4.40046 18.1094 2.78717 20.8984C2.74047 20.9877 2.73007 21.0916 2.75814 21.1883C2.78622 21.2851 2.85059 21.3673 2.93782 21.4177C3.02504 21.4681 3.12838 21.4829 3.22624 21.4589C3.32409 21.4349 3.40891 21.3741 3.46296 21.2891C5.37116 17.9873 8.75202 16.0156 12.5001 16.0156C16.2481 16.0156 19.629 17.9873 21.5372 21.2891C21.5714 21.3484 21.6207 21.3977 21.68 21.4319C21.7393 21.4662 21.8066 21.4843 21.8751 21.4844C21.9437 21.4846 22.0112 21.4664 22.0704 21.4316C22.1599 21.3798 22.2252 21.2945 22.252 21.1945C22.2787 21.0946 22.2647 20.9881 22.213 20.8984ZM6.64069 9.37499C6.64069 8.21612 6.98434 7.08327 7.62817 6.1197C8.27201 5.15613 9.18712 4.40512 10.2578 3.96164C11.3284 3.51816 12.5066 3.40212 13.6432 3.62821C14.7798 3.85429 15.8238 4.41234 16.6433 5.23179C17.4627 6.05124 18.0208 7.09528 18.2469 8.23189C18.4729 9.36849 18.3569 10.5466 17.9134 11.6173C17.4699 12.6879 16.7189 13.6031 15.7554 14.2469C14.7918 14.8907 13.6589 15.2344 12.5001 15.2344C10.9466 15.2326 9.45731 14.6147 8.35886 13.5162C7.26041 12.4177 6.6425 10.9284 6.64069 9.37499Z" fill="white"/>
</svg>
